<svg xmlns="http://www.w3.org/2000/svg" width="1080" height="1080" viewBox="0 0 1080 1080">
  <g id="b1dada42-b338-4d4a-b05c-0c431ecc9800" data-name="Layer 2">
    <circle cx="540" cy="540" r="540" style="fill: #121212"/>
    <path d="M243.28,807.69a106.31,106.31,0,0,1,33.54-48.62c12.3-9.86,22.43-20.94,28-36.49,2.19-6.24,9.67-11.49,15.93-15.18,14.51-8.58,30.13-15.32,44.52-24.07a127.9,127.9,0,0,1,45.14-16.61,125.3,125.3,0,0,0,64.43-32c2.19-2,4.07-7.49,2.91-9.37-10.63-17.17-21.88-33.95-33.17-50.73a24.09,24.09,0,0,0-5.27-4.38c-.79,2.19-1.71,4.38-2.34,6.7-.79,2.91-1.16,5.92-2,8.75-4.12,13.61-10.15,18.18-24.42,18.42-7.92.11-15.88.31-23.78-.13a26.23,26.23,0,0,0-23.5,10.72c-5.75,7.26-9.8,7.55-17.37,2.34-15.19-10.44-16.06-10.17-23,7.35-1.82,4.55-3.39,9.23-5.23,13.78-4.7,11.64-8.95,12.17-17.06,2.41a170.33,170.33,0,0,0-11.58-12.69c-4.72-4.68-9-4.88-11.86,2.19a65.57,65.57,0,0,1-22.64,29.49c-10.66,7.72-15,19-17.22,31.55A278.18,278.18,0,0,1,231.16,720c-3.35,11.68-11.07,20.67-22.65,24.22A22.62,22.62,0,0,0,191.69,762,25.2,25.2,0,0,1,190,766.6c-.92,1.86-2.06,3.61-3.09,5.4a54,54,0,0,1,.31-6.23c4.48-28.62,8.27-57.37,13.89-85.77,2.6-13.12,8-26,13.5-38.29,8.64-19.42,20-37.76,27.39-57.58a158.37,158.37,0,0,1,53.06-71.3c10.76-8.34,21.33-17.35,33.12-23.92,8-4.37,17.81-6.56,27.05-7.72,10.24-1.25,20.8.57,31.11-.35,5.18-.46,11.62-2.69,14.85-6.41,19.08-22,43.45-20.2,68.09-15.56,4.86.9,9.36,7,12.67,11.64,2.73,3.85,3,9.35,5.14,13.72,4.64,9.47,8.07,20.35,15.07,27.7,12.21,12.78,17.51,27.24,18.45,44.19a183.14,183.14,0,0,0,2.19,18.69c1.51,9.41,1.57,9.3,9.89,3.72,6.3-4.25,9.21-8.21,9.95-17.5,1.66-20.42,7.5-40.63,13.13-60.52,1.29-4.64,8.18-7.72,12.51-11.51,2.37-2.06,5.32-3.7,7-6.21A56.48,56.48,0,0,0,580,472.33c4.38-10.94,12.32-16.69,24.33-17.72,15.6-1.34,14.84-1.95,19.69-16.74,4-12.38,10.33-24.07,15.08-36.23,3.85-9.83,8-19.69,10-30a56.9,56.9,0,0,1,16.6-31.29c13.44-12.71,24.46-28.13,41.57-36.71,2-1,3.15-4.9,3.55-7.61,1-7,1.35-14.14,2.18-21.18,0-.88,1-1.67,1.58-2.5.5.86,1.31,1.66,1.4,2.56a167.67,167.67,0,0,0,2.19,18.69c.74,3.1,3.39,7.54,6,8.18,14.33,3.52,24.07,12.67,31.72,24.35a89.16,89.16,0,0,0,30.13,29.36,112.77,112.77,0,0,1,47.87,54.46c6.57,15.31,13.76,30.37,20.85,45.46,11.12,23.76,14.33,49.08,15.51,74.92,1.45,31.92,3,63.84,5.3,95.69,1.31,18.45,7.39,35.78,16.06,52.16a26.91,26.91,0,0,1,1.53,5.91,37,37,0,0,1-4.38-4.38,112.91,112.91,0,0,1-21.35-56.88A209.85,209.85,0,0,0,852,559.58c-9.5-23.76-15.93-48.79-23-73.49-6.17-21.59-16.61-41-29-59.42-7-10.48-26.6-10.55-34.24-.57-2.65,3.48-5,7.2-7.39,10.94-8.36,12.47-23,16.21-34.81,6.93A77.9,77.9,0,0,1,705,421.64c-10.94-18.78-10.54-18.82-23-1.43-10.15,14.18-21.09,27.83-32.4,41.09-7.5,8.75-7.39,11.71,3.28,16.08,1.21.51,2.43,1,3.64,1.45-1.45.3-3.29,1.35-4.38.83-6.91-3.5-14.31-6.57-20.3-11.2-12.08-9.54-32.67-3.9-36.39,10.8-2.8,11.1-3.74,22.32,2.19,32.82a55.28,55.28,0,0,1,6.85,31.55,24.51,24.51,0,0,0,1.2,6.11,23.56,23.56,0,0,0,5.67-2.85c24.44-20.19,51.68-33.84,83.93-35.16a143.39,143.39,0,0,1,25.18,1.51,16.77,16.77,0,0,1,15.09,15.1c1.32,8.51,6,14.68,11.43,21.16a43.29,43.29,0,0,1,9.56,20.26c6.12,40.49,26.25,73.09,54.87,101.18a9.88,9.88,0,0,1,1.7,1.78c1.23,2.19,2.3,4.48,3.46,6.74a24.26,24.26,0,0,1-6.56-3.22c-8.23-8-16.74-15.78-24.07-24.5-18.6-22.08-41.11-36.19-70.49-38.69a212.72,212.72,0,0,1-32.27-6c-7.84-1.9-12.85.5-15.91,7.53s-5.6,13.63-8.36,20.47c-1.62,4.05-2.91,8.27-4.81,12.19-7.18,15-15.6,19.1-30.35,11.42-20.23-10.5-37.89-8.51-55.55,5.08-15.31,11.77-31.61,22.31-46.73,34.35-6.24,5-10.5,12.47-15.67,18.81-6.38,7.81-14.79,10.18-24.3,8.27-48.81-9.73-94.48.44-138.23,21.88-23.52,11.58-46.76,23.76-70,35.75-10.48,5.38-16.6,14.68-21.7,24.83Z" style="fill: #48af5f"/>
  </g>
</svg>
