<svg xmlns="http://www.w3.org/2000/svg" width="563.29" height="427.08" viewBox="0 0 563.29 427.08">
  <g id="ae2869c8-2d1e-4521-8f17-b2674fbcf483" data-name="Layer 2">
    <g id="b36059d4-13e6-4e75-b988-15054e0cf5ae" data-name="Layer 1">
      <path d="M44.94,427.08A84.88,84.88,0,0,1,71.7,388.3c9.81-7.87,17.89-16.7,22.31-29.11,1.74-5,7.71-9.16,12.7-12.11,11.57-6.84,24-12.22,35.52-19.2a101.83,101.83,0,0,1,36-13.25,100.06,100.06,0,0,0,51.4-25.5c1.74-1.57,3.24-6,2.32-7.47-8.49-13.7-17.46-27.09-26.46-40.47a19.32,19.32,0,0,0-4.21-3.49c-.63,1.74-1.36,3.49-1.87,5.34-.62,2.32-.92,4.73-1.6,7-3.28,10.86-8.1,14.5-19.48,14.69-6.32.09-12.67.25-19-.1a21,21,0,0,0-18.75,8.55c-4.59,5.8-7.82,6-13.85,1.87-12.12-8.33-12.82-8.12-18.38,5.86-1.45,3.63-2.71,7.37-4.17,11-3.76,9.28-7.14,9.7-13.62,1.92a132.5,132.5,0,0,0-9.23-10.12c-3.77-3.74-7.16-3.9-9.46,1.74A52.41,52.41,0,0,1,53.85,309c-8.5,6.16-12,15.17-13.74,25.17a225.83,225.83,0,0,1-4.83,23c-2.68,9.32-8.84,16.49-18.07,19.32A18.05,18.05,0,0,0,3.79,390.62a19.35,19.35,0,0,1-1.33,3.69c-.73,1.48-1.64,2.88-2.46,4.31a43.59,43.59,0,0,1,.25-5c3.57-22.83,6.59-45.76,11.08-68.41,2.08-10.48,6.39-20.7,10.77-30.55C29,279.18,38,264.56,44,248.75a126.41,126.41,0,0,1,42.32-56.89c8.59-6.65,17-13.84,26.43-19.07,6.37-3.49,14.21-5.24,21.57-6.16,8.17-1,16.6.45,24.82-.28,4.14-.37,9.27-2.15,11.85-5.12,15.22-17.55,34.66-16.11,54.31-12.41,3.88.72,7.47,5.57,10.11,9.29,2.18,3.07,2.39,7.45,4.1,10.94,3.7,7.56,6.44,16.23,12,22.1,9.74,10.19,14,21.73,14.71,35.25A146.39,146.39,0,0,0,268,241.31c1.2,7.5,1.25,7.42,7.88,3,5-3.39,7.35-6.55,7.95-14,1.32-16.28,6-32.41,10.47-48.27,1-3.7,6.53-6.16,10-9.18,1.89-1.64,4.24-3,5.59-5a45.36,45.36,0,0,0,3.7-8.34c3.49-8.73,9.82-13.32,19.4-14.14,12.45-1.06,11.84-1.55,15.71-13.35,3.21-9.88,8.24-19.2,12-28.9,3.07-7.84,6.35-15.71,8-24a45.43,45.43,0,0,1,13.25-25C392.6,44.1,401.39,31.8,415,25c1.59-.8,2.52-3.91,2.83-6.08.8-5.6,1.08-11.27,1.75-16.89,0-.7.82-1.33,1.25-2,.4.68,1.05,1.33,1.12,2A138.35,138.35,0,0,0,423.73,17c.6,2.48,2.71,6,4.77,6.52,11.43,2.81,19.2,10.11,25.31,19.43a70.84,70.84,0,0,0,24,23.42A90.06,90.06,0,0,1,516,109.76C521.26,122,527,134,532.66,146c8.87,19,11.43,39.15,12.37,59.76,1.16,25.47,2.4,50.93,4.23,76.34,1,14.72,5.9,28.54,12.81,41.61a21.9,21.9,0,0,1,1.22,4.71A28.76,28.76,0,0,1,559.8,325a90,90,0,0,1-17-45.37,167.4,167.4,0,0,0-12.22-50.43c-7.58-18.95-12.71-38.92-18.34-58.62-4.93-17.23-13.25-32.69-23.13-47.41-5.62-8.36-21.22-8.41-27.32-.45-2.11,2.77-4,5.74-5.89,8.73-6.67,9.94-18.37,12.93-27.77,5.53a62.34,62.34,0,0,1-14.82-17.82c-8.73-15-8.41-15-18.36-1.14-8.1,11.31-16.83,22.21-25.85,32.78-6,7-5.9,9.34,2.62,12.83,1,.4,1.94.77,2.9,1.15-1.16.25-2.62,1.08-3.5.67-5.51-2.8-11.41-5.24-16.19-8.94-9.64-7.61-26.06-3.11-29,8.62-2.23,8.85-3,17.8,1.75,26.18a44,44,0,0,1,5.46,25.17,19.74,19.74,0,0,0,1,4.87,18.78,18.78,0,0,0,4.52-2.27c19.5-16.11,41.23-27,66.95-28a113.49,113.49,0,0,1,20.09,1.21,13.37,13.37,0,0,1,12,12c1.05,6.79,4.77,11.71,9.12,16.88a34.52,34.52,0,0,1,7.62,16.16c4.89,32.3,20.95,58.31,43.78,80.72a8.25,8.25,0,0,1,1.36,1.41c1,1.75,1.83,3.58,2.75,5.38a19.28,19.28,0,0,1-5.23-2.57c-6.56-6.37-13.35-12.58-19.2-19.54C463,285.07,445,273.81,421.6,271.82A170.54,170.54,0,0,1,395.86,267c-6.25-1.52-10.24.4-12.69,6s-4.47,10.87-6.66,16.34c-1.3,3.23-2.33,6.59-3.84,9.72-5.73,11.94-12.45,15.23-24.21,9.11-16.15-8.38-30.23-6.79-44.32,4.05-12.21,9.39-25.22,17.8-37.28,27.4-5,4-8.37,9.95-12.49,15-5.1,6.23-11.8,8.12-19.39,6.6-38.94-7.77-75.37.35-110.27,17.45-18.77,9.23-37.3,18.95-55.85,28.52C60.5,411.53,55.61,419,51.54,427.05Z" style="fill: currentColor"/>
    </g>
  </g>
</svg>
