<svg xmlns="http://www.w3.org/2000/svg" width="1771.38" height="427.08" viewBox="0 0 1771.38 427.08">
  <g id="b4fa5885-51a4-4064-b578-531a9d688c0f" data-name="Layer 2">
    <g id="a6a59177-a786-4acf-a3fc-9f05d31c79e8" data-name="Layer 1">
      <path d="M44.94,427.08A84.88,84.88,0,0,1,71.7,388.3c9.81-7.87,17.89-16.7,22.31-29.11,1.74-5,7.71-9.16,12.7-12.11,11.57-6.84,24-12.22,35.52-19.2a101.83,101.83,0,0,1,36-13.25,100.06,100.06,0,0,0,51.4-25.5c1.74-1.57,3.24-6,2.32-7.47-8.49-13.7-17.46-27.09-26.46-40.47a19.32,19.32,0,0,0-4.21-3.49c-.63,1.74-1.36,3.49-1.87,5.34-.62,2.32-.92,4.73-1.6,7-3.28,10.86-8.1,14.5-19.48,14.69-6.32.09-12.67.25-19-.1a21,21,0,0,0-18.75,8.55c-4.59,5.8-7.82,6-13.85,1.87-12.12-8.33-12.82-8.12-18.38,5.86-1.45,3.63-2.71,7.37-4.17,11-3.76,9.28-7.14,9.7-13.62,1.92a132.5,132.5,0,0,0-9.23-10.12c-3.77-3.74-7.16-3.9-9.46,1.74A52.41,52.41,0,0,1,53.85,309c-8.5,6.16-12,15.17-13.74,25.17a225.83,225.83,0,0,1-4.83,23c-2.68,9.32-8.84,16.49-18.07,19.32A18.05,18.05,0,0,0,3.79,390.62a19.35,19.35,0,0,1-1.33,3.69c-.73,1.48-1.64,2.88-2.46,4.31a43.59,43.59,0,0,1,.25-5c3.57-22.83,6.59-45.76,11.08-68.41,2.08-10.48,6.39-20.7,10.77-30.55C29,279.18,38,264.56,44,248.75a126.41,126.41,0,0,1,42.32-56.89c8.59-6.65,17-13.84,26.43-19.07,6.37-3.49,14.21-5.24,21.57-6.16,8.17-1,16.6.45,24.82-.28,4.14-.37,9.27-2.15,11.85-5.12,15.22-17.55,34.66-16.11,54.31-12.41,3.88.72,7.47,5.57,10.11,9.29,2.18,3.07,2.39,7.45,4.1,10.94,3.7,7.56,6.44,16.23,12,22.1,9.74,10.19,14,21.73,14.71,35.25A146.39,146.39,0,0,0,268,241.31c1.2,7.5,1.25,7.42,7.88,3,5-3.39,7.35-6.55,7.95-14,1.32-16.28,6-32.41,10.47-48.27,1-3.7,6.53-6.16,10-9.18,1.89-1.64,4.24-3,5.59-5a45.36,45.36,0,0,0,3.7-8.34c3.49-8.73,9.82-13.32,19.4-14.14,12.45-1.06,11.84-1.55,15.71-13.35,3.21-9.88,8.24-19.2,12-28.9,3.07-7.84,6.35-15.71,8-24a45.43,45.43,0,0,1,13.25-25C392.6,44.1,401.39,31.8,415,25c1.59-.8,2.52-3.91,2.83-6.08.8-5.6,1.08-11.27,1.75-16.89,0-.7.82-1.33,1.25-2,.4.68,1.05,1.33,1.12,2A138.35,138.35,0,0,0,423.73,17c.6,2.48,2.71,6,4.77,6.52,11.43,2.81,19.2,10.11,25.31,19.43a70.84,70.84,0,0,0,24,23.42A90.06,90.06,0,0,1,516,109.76C521.26,122,527,134,532.66,146c8.87,19,11.43,39.15,12.37,59.76,1.16,25.47,2.4,50.93,4.23,76.34,1,14.72,5.9,28.54,12.81,41.61a21.9,21.9,0,0,1,1.22,4.71A28.76,28.76,0,0,1,559.8,325a90,90,0,0,1-17-45.37,167.4,167.4,0,0,0-12.22-50.43c-7.58-18.95-12.71-38.92-18.34-58.62-4.93-17.23-13.25-32.69-23.13-47.41-5.62-8.36-21.22-8.41-27.32-.45-2.11,2.77-4,5.74-5.89,8.73-6.67,9.94-18.37,12.93-27.77,5.53a62.34,62.34,0,0,1-14.82-17.82c-8.73-15-8.41-15-18.36-1.14-8.1,11.31-16.83,22.21-25.85,32.78-6,7-5.9,9.34,2.62,12.83,1,.4,1.94.77,2.9,1.15-1.16.25-2.62,1.08-3.5.67-5.51-2.8-11.41-5.24-16.19-8.94-9.64-7.61-26.06-3.11-29,8.62-2.23,8.85-3,17.8,1.75,26.18a44,44,0,0,1,5.46,25.17,19.74,19.74,0,0,0,1,4.87,18.78,18.78,0,0,0,4.52-2.27c19.5-16.11,41.23-27,66.95-28a113.49,113.49,0,0,1,20.09,1.21,13.37,13.37,0,0,1,12,12c1.05,6.79,4.77,11.71,9.12,16.88a34.52,34.52,0,0,1,7.62,16.16c4.89,32.3,20.95,58.31,43.78,80.72a8.25,8.25,0,0,1,1.36,1.41c1,1.75,1.83,3.58,2.75,5.38a19.28,19.28,0,0,1-5.23-2.57c-6.56-6.37-13.35-12.58-19.2-19.54C463,285.07,445,273.81,421.6,271.82A170.54,170.54,0,0,1,395.86,267c-6.25-1.52-10.24.4-12.69,6s-4.47,10.87-6.66,16.34c-1.3,3.23-2.33,6.59-3.84,9.72-5.73,11.94-12.45,15.23-24.21,9.11-16.15-8.38-30.23-6.79-44.32,4.05-12.21,9.39-25.22,17.8-37.28,27.4-5,4-8.37,9.95-12.49,15-5.1,6.23-11.8,8.12-19.39,6.6-38.94-7.77-75.37.35-110.27,17.45-18.77,9.23-37.3,18.95-55.85,28.52C60.5,411.53,55.61,419,51.54,427.05Z" style="fill: #48af5f"/>
      <text transform="translate(625.78 41.43)" style="font-size: 48.424930572509766px;fill: #48af5f;font-family: Roboto-Bold, Roboto;font-weight: 700">JGR</text>
      <g>
        <path d="M704.83,378.63l33.4-122.09h45.15l-56.44,167.7H682.71l-56-167.7h44.8Z" style="fill: #48af5f"/>
        <path d="M875.06,424.34H834.75V256.64h40.31Z" style="fill: #48af5f"/>
        <path d="M1033.61,394.6h-55.4l-9.67,31.33H925.35l61.5-167.7h38l62,167.7H1043.4Zm-45.72-31.21h36.05l-18.08-58.17Z" style="fill: #48af5f"/>
        <path d="M1190.13,257.08h40.31V372.14a55,55,0,0,1-7.43,28.57,50.69,50.69,0,0,1-20.73,19.46,63.32,63.32,0,0,1-29.66,6.91q-27.4,0-42.61-13.82T1114.8,374.1h40.55q0,11.52,4,16.7t13.3,5.18q8.42,0,13-6.27t4.55-17.57Z" style="fill: #48af5f"/>
        <path d="M1382.1,353h-63.58V393h75.1v31.1H1278.09V256.43h115.76v31.21h-75.33V323h63.58Z" style="fill: #48af5f"/>
        <path d="M1513.84,365.25H1492v59.31h-40.43V256.86h66q29.82,0,46.65,13.23t16.81,37.4q0,17.49-7.08,29t-22.17,18.64l35,67.71v1.73h-43.31ZM1492,334.15h25.57q11.52,0,17.33-6.07t5.82-16.91q0-10.86-5.87-17T1517.53,288H1492Z" style="fill: #48af5f"/>
        <path d="M1718.17,393.34h-55.4l-9.67,31.33h-43.2L1671.41,257h38l62,167.7H1728Zm-45.73-31.21h36.06L1690.41,304Z" style="fill: #48af5f"/>
        <g id="f926a567-5e7f-4d88-a4dc-2d1a7ecb5e50" data-name="CONEXIÓN">
          <path d="M767.14,171.33q-.81,17.5-9.45,30.93A57,57,0,0,1,733.45,223q-15.62,7.38-35.65,7.38-33.06,0-52.06-21.54t-19-60.82v-8.29q0-24.65,8.58-43.13T660,68.07Q676.15,58,697.34,58q30.52,0,49.07,16.07t21.07,44.29H727.17q-.46-15.31-7.72-22t-22.11-6.68q-15.09,0-22.11,11.29T667.86,137v11.86q0,26.83,6.73,38.35t23.21,11.52q13.94,0,21.31-6.56t7.83-20.85Z" style="fill: #48af5f"/>
          <path d="M928.27,147.72q0,24.53-9.1,43.42t-25.85,29.08q-16.77,10.2-38.18,10.2t-38-9.85a67.13,67.13,0,0,1-25.86-28.16q-9.27-18.32-9.73-42v-9.45q0-24.64,9-43.48a67.13,67.13,0,0,1,25.91-29.08q16.88-10.24,38.42-10.25,21.3,0,38,10.14t26,28.85q9.27,18.72,9.38,42.9Zm-41.11-7q0-25-8.36-37.95t-23.89-13q-30.42,0-32.14,45.61l-.11,12.33q0,24.65,8.17,37.89t24.31,13.25q15.32,0,23.61-13t8.41-37.43Z" style="fill: #48af5f"/>
          <path d="M1089.18,228.11H1049L989.55,123.76V228.11H949.12V60.41h40.43l59.32,104.36V60.41h40.31Z" style="fill: #48af5f"/>
          <path d="M1218.75,156.93h-63.58V197h75.1v31.1H1114.75V60.41H1230.5V91.63h-75.33V127h63.58Z" style="fill: #48af5f"/>
          <path d="M1309.29,116.16l27.41-55.75h46.18L1336,143.57l48.14,84.54H1337.5l-28.21-56.78-28.22,56.78h-46.54l48-84.54L1235.8,60.41h46.07Z" style="fill: #48af5f"/>
          <path d="M1440.36,228.11H1400V60.41h40.32Z" style="fill: #48af5f"/>
          <path d="M1610.47,147.72q0,24.53-9.09,43.42t-25.86,29.08q-16.76,10.2-38.18,10.2t-38-9.85a67.13,67.13,0,0,1-25.86-28.16q-9.27-18.32-9.73-42v-9.45q0-24.64,9-43.48a67.09,67.09,0,0,1,25.92-29.08q16.86-10.24,38.41-10.25,21.3,0,38,10.14t26,28.85q9.27,18.72,9.38,42.9Zm-41.11-7q0-25-8.35-37.95t-23.9-13q-30.4,0-32.14,45.61l-.11,12.33q0,24.65,8.18,37.89t24.3,13.25q15.32,0,23.61-13t8.41-37.43Zm-27.53-125.2h41l-32,36.17-31.67-.06Z" style="fill: #48af5f"/>
          <path d="M1771.38,228.11h-40.2l-59.43-104.35V228.11h-40.43V60.41h40.43l59.32,104.36V60.41h40.31Z" style="fill: #48af5f"/>
        </g>
      </g>
    </g>
  </g>
</svg>
